<?xml version="1.0" encoding="UTF-8"?>
<svg id="Layer_3" data-name="Layer 3" xmlns="http://www.w3.org/2000/svg" viewBox="0 0 128.83 109.5">
  <defs>
    <style>
      .cls-1 {
        fill: none;
        stroke: #010101;
        stroke-linejoin: bevel;
        stroke-width: 4.8px;
      }
    </style>
  </defs>
  <path class="cls-1" d="M116.66,83.69l-14.68-22.48c-7.46-11.43-14.14-23.35-19.98-35.69l-4.88-10.3-3.61,7.62c-6.68,14.12-14.45,27.69-23.25,40.59l-6.43,9.44"/>
  <path class="cls-1" d="M111.97,96.61l-22.73-35.83c-7.06-11.13-13.15-22.86-18.19-35.04h0"/>
  <path class="cls-1" d="M7.86,93.91l35.77-1.88c14.22-.75,28.48-.48,42.66.8l11.99,1.08-6.43-9.44c-8.79-12.91-16.57-26.48-23.25-40.59l-3.61-7.62"/>
  <path class="cls-1" d="M7.86,83.69l32.87-1.73c16.14-.85,32.33-.39,48.4,1.37l3.24.36"/>
  <path class="cls-1" d="M86.13,72.88l-6.36-.57c-17.92-1.61-35.94-1.61-53.85,0l-6.36.57,7.97-11.69c7.78-11.41,14.76-23.35,20.89-35.72l8.97-18.1"/>
  <path class="cls-1" d="M31.7,72.88l7.97-11.69c7.78-11.41,14.76-23.35,20.89-35.72l8.97-18.1"/>
</svg>