<svg width="390" height="219" viewBox="0 0 390 219" fill="none" xmlns="http://www.w3.org/2000/svg">
<path d="M268.4 111.1L263.4 98.4001H238.5L233.8 111.1H217L243.9 46.6001H259L285.7 111.1H268.4ZM251.2 63.7001L243 85.9001H259.1L251.2 63.7001ZM320.6 89.2001V108.3H308.8V89.2001H289.5V77.7001H308.7V58.6001H320.5V77.7001H339.8V89.2001H320.6ZM226.6 168.5H223V132.6H233.5C235.2 132.6 236.9 132.8 238.4 133.1C239.9 133.4 241.2 134 242.3 134.7C243.4 135.5 244.2 136.4 244.8 137.7C245.4 138.9 245.7 140.4 245.7 142.2C245.7 143.5 245.5 144.7 245 145.8C244.5 146.9 243.9 147.8 243.1 148.6C242.3 149.4 241.3 150 240.2 150.5C239.1 151 237.9 151.3 236.6 151.4L247 168.5H242.6L232.7 151.7H226.7V168.5H226.6ZM226.6 148.6H232.9C235.8 148.6 238.1 148.1 239.7 147C241.3 145.9 242.1 144.3 242.1 142.2C242.1 141 241.9 140 241.4 139.2C241 138.4 240.4 137.7 239.6 137.2C238.8 136.7 237.9 136.3 236.8 136.1C235.7 135.9 234.5 135.7 233.1 135.7H226.6V148.6ZM267.3 153.2C267.3 151.1 266.8 149.6 265.7 148.6C264.6 147.6 263.1 147.1 261 147.1C259.6 147.1 258.3 147.4 257.1 147.9C255.9 148.4 254.9 149.1 254 149.9L252.1 147.6C253.1 146.6 254.4 145.8 256 145.2C257.6 144.6 259.4 144.2 261.4 144.2C262.7 144.2 263.9 144.4 265 144.7C266.1 145 267.1 145.6 267.9 146.3C268.7 147 269.4 147.9 269.9 149C270.4 150.1 270.6 151.3 270.6 152.8V163.2C270.6 164.1 270.6 165.1 270.7 166C270.8 167 270.9 167.8 271 168.5H267.9C267.8 167.9 267.7 167.3 267.6 166.6C267.5 165.9 267.5 165.3 267.5 164.6H267.4C266.3 166.2 265.1 167.3 263.7 168C262.3 168.7 260.7 169 258.8 169C257.9 169 257 168.9 256 168.6C255 168.3 254.2 167.9 253.4 167.4C252.6 166.8 252 166.1 251.4 165.2C250.9 164.3 250.6 163.2 250.6 161.9C250.6 160.1 251.1 158.6 252 157.6C252.9 156.5 254.2 155.7 255.7 155.2C257.2 154.7 259 154.3 261 154.2C263 154 265.1 154 267.2 154V153.2H267.3ZM266.3 156.6C264.9 156.6 263.5 156.7 262 156.8C260.6 156.9 259.3 157.2 258.1 157.5C256.9 157.9 256 158.4 255.3 159C254.6 159.6 254.2 160.6 254.2 161.7C254.2 162.5 254.4 163.3 254.7 163.8C255 164.3 255.4 164.8 256 165.2C256.6 165.6 257.1 165.8 257.8 166C258.5 166.2 259.1 166.2 259.8 166.2C261 166.2 262.1 166 263 165.6C263.9 165.2 264.7 164.6 265.4 163.9C266 163.2 266.5 162.3 266.9 161.4C267.3 160.5 267.4 159.5 267.4 158.4V156.6H266.3ZM289.4 147.6H282.7V161.4C282.7 162.3 282.8 163 283 163.6C283.2 164.2 283.4 164.6 283.7 164.9C284 165.2 284.4 165.4 284.8 165.6C285.2 165.7 285.7 165.8 286.2 165.8C286.7 165.8 287.2 165.7 287.7 165.6C288.2 165.5 288.7 165.3 289.2 165L289.4 168C288.8 168.2 288.2 168.4 287.5 168.5C286.8 168.6 286.1 168.7 285.4 168.7C284.8 168.7 284.1 168.6 283.4 168.4C282.7 168.2 282 167.9 281.4 167.4C280.8 166.9 280.3 166.3 279.9 165.5C279.5 164.7 279.3 163.6 279.3 162.3V147.5H274.4V144.6H279.3V137.9H282.7V144.6H289.4V147.6ZM298.3 168.5H294.9V144.8H298.3V168.5ZM299 135.6C299 136.3 298.7 136.9 298.2 137.3C297.7 137.8 297.1 138 296.5 138C295.9 138 295.3 137.8 294.8 137.3C294.3 136.8 294 136.3 294 135.6C294 134.9 294.3 134.3 294.8 133.9C295.3 133.4 295.9 133.2 296.5 133.2C297.1 133.2 297.7 133.4 298.2 133.9C298.7 134.3 299 134.9 299 135.6ZM310.4 144.8C310.5 145.4 310.5 146.2 310.6 146.9C310.6 147.7 310.7 148.3 310.7 148.8H310.8C311.5 147.4 312.6 146.3 314.1 145.4C315.6 144.5 317.2 144.1 318.9 144.1C321.9 144.1 324.1 145 325.6 146.8C327.1 148.6 327.8 151 327.8 153.9V168.4H324.4V155.3C324.4 154.1 324.3 152.9 324.1 151.9C323.9 150.9 323.6 150 323.1 149.3C322.6 148.6 322 148 321.1 147.6C320.3 147.2 319.2 147 318 147C317.1 147 316.2 147.2 315.4 147.6C314.5 148 313.8 148.5 313.1 149.3C312.4 150.1 311.9 151 311.5 152.2C311.1 153.4 310.9 154.7 310.9 156.3V168.5H307.5V150C307.5 149.4 307.5 148.5 307.4 147.5C307.4 146.5 307.3 145.6 307.2 144.8H310.4ZM337.9 173.2C338.8 174.4 340.1 175.4 341.8 176.3C343.4 177.1 345.2 177.6 347 177.6C348.7 177.6 350.1 177.4 351.3 176.9C352.5 176.4 353.4 175.7 354.1 174.9C354.8 174.1 355.4 173.1 355.7 171.9C356 170.8 356.2 169.6 356.2 168.3V163.8H356C355.1 165.3 353.8 166.4 352.1 167.2C350.4 168 348.7 168.4 347 168.4C345.2 168.4 343.5 168.1 342 167.5C340.5 166.9 339.2 166.1 338.2 165C337.1 163.9 336.3 162.7 335.7 161.2C335.1 159.7 334.8 158.1 334.8 156.4C334.8 154.7 335.1 153.1 335.7 151.6C336.3 150.1 337.1 148.8 338.2 147.7C339.3 146.6 340.5 145.7 342 145.1C343.5 144.5 345.2 144.1 347 144.1C348.7 144.1 350.4 144.5 352 145.3C353.6 146.1 354.9 147.3 355.9 148.8H356V144.7H359.4V168.2C359.4 169.5 359.2 170.9 358.9 172.3C358.5 173.8 357.9 175.1 356.9 176.3C355.9 177.5 354.6 178.5 353 179.3C351.4 180.1 349.2 180.5 346.6 180.5C344.4 180.5 342.3 180.1 340.4 179.2C338.4 178.4 336.7 177.2 335.3 175.7L337.9 173.2ZM338.6 156.3C338.6 157.5 338.8 158.7 339.2 159.8C339.6 160.9 340.2 161.9 340.9 162.7C341.7 163.5 342.6 164.2 343.7 164.7C344.8 165.2 346.1 165.4 347.5 165.4C348.8 165.4 350 165.2 351.1 164.7C352.2 164.3 353.2 163.6 354 162.8C354.8 162 355.4 161 355.9 159.9C356.4 158.8 356.6 157.5 356.6 156.1C356.6 154.9 356.4 153.7 355.9 152.6C355.4 151.5 354.8 150.5 354 149.7C353.2 148.9 352.2 148.2 351.1 147.7C350 147.2 348.8 146.9 347.5 146.9C346.1 146.9 344.8 147.2 343.7 147.7C342.6 148.2 341.7 148.9 340.9 149.7C340.1 150.5 339.6 151.5 339.2 152.6C338.8 153.9 338.6 155.1 338.6 156.3Z" fill="black"/>
<path d="M147.4 189.4C148.2 189.4 149 189.7 149.5 190.3C150.1 190.9 150.4 191.6 150.4 192.4C150.4 193.2 150.1 194 149.5 194.6C148.9 195.2 148.2 195.5 147.4 195.5C146.6 195.5 145.8 195.2 145.3 194.6C144.7 194 144.4 193.3 144.4 192.4C144.4 191.6 144.7 190.9 145.3 190.3C145.9 189.7 146.6 189.4 147.4 189.4ZM147.4 189.8C146.7 189.8 146.1 190.1 145.6 190.6C145.1 191.1 144.8 191.7 144.8 192.4C144.8 193.1 145.1 193.7 145.6 194.3C146.1 194.8 146.7 195.1 147.4 195.1C148.1 195.1 148.7 194.8 149.2 194.3C149.7 193.8 150 193.2 150 192.4C150 191.7 149.7 191.1 149.2 190.6C148.8 190.1 148.1 189.8 147.4 189.8ZM54.3999 155.6C58.8999 155.6 62.6 156.7 64.8 159C66.7 160.9 67.3999 163.1 67.3999 165.7C67.3999 170.2 65.2 172.8 62.2 174.3C66.7 176.2 69.6 178.8 69.6 184C69.6 190.8 64.1 194.6 55.7 194.8H54.8H36.2V155.5H54.3999V155.6ZM91.5 155.6C96 155.6 99.6999 156.7 101.9 159C103.8 160.9 104.5 163.1 104.5 165.7C104.5 170.2 102.3 172.8 99.3 174.3C103.8 176.2 106.7 178.8 106.7 184C106.7 190.8 101.2 194.6 92.8 194.8H91.8999H73.3V155.5H91.5V155.6ZM128.7 155.6C133.2 155.6 136.9 156.7 139.1 159C141 160.9 141.7 163.1 141.7 165.7C141.7 170.2 139.5 172.8 136.5 174.3C141 176.2 143.9 178.8 143.9 184C143.9 190.8 138.4 194.6 130 194.8H129.1H110.5V155.5H128.7V155.6ZM147.4 190.8C147.8 190.8 148.1 190.8 148.3 190.9C148.6 191 148.8 191.3 148.8 191.7C148.8 192 148.7 192.2 148.5 192.4C148.4 192.5 148.2 192.5 148 192.6C148.3 192.6 148.4 192.8 148.6 192.9C148.7 193.1 148.8 193.2 148.8 193.4V193.6C148.8 193.7 148.8 193.8 148.8 193.8C148.8 193.9 148.8 193.9 148.8 194H148.3V193.9V193.6C148.3 193.2 148.2 193 148 192.8C147.9 192.7 147.7 192.7 147.3 192.7H146.8V194H146.2V190.7H147.4V190.8ZM54.8 178.8H44.3999V187.4H54.8C58.5 187.4 61.1 185.9 61.1 183.3C61.1 180.7 59.2 178.8 54.8 178.8ZM91.8999 178.8H81.5V187.4H91.8999C95.5999 187.4 98.2 185.9 98.2 183.3C98.2 180.7 96.3999 178.8 91.8999 178.8ZM128.7 178.8H118.7V187.4H129C132.7 187.4 134.9 185.9 134.9 183.3C135 180.7 133.1 178.8 128.7 178.8ZM53.3 163.5H44.3999V171.7H52.6C56.3 171.7 58.8999 170.6 58.8999 167.6C58.8999 165 57 163.5 53.3 163.5ZM90.3999 163.5H81.5V171.7H89.7C93.4 171.7 96 170.6 96 167.6C96 165 94.0999 163.5 90.3999 163.5ZM127.5 163.5H119V171.7H126.8C130.5 171.7 133.1 170.6 133.1 167.6C133.1 165 131.2 163.5 127.5 163.5ZM123.1 129.8L125.6 137.7H107.9L104.6 148.9H75.3L72 137.7H54.3L56.8 129.8H123.1ZM75.8 72.5002L78.1 74.4001C78.1 74.4001 75.7999 77.6002 78.8999 80.6002L79.3999 81.0002L94.3999 91.9001C97.2999 94.2001 99.3 97.3001 100.3 100.7C100.6 101.7 101.6 106.6 99.8 111.3C99.5 112 99.1 112.7 98.8 113.4L98.2 114.4L89.7 126L87.3 124C87.4 123.9 87.5 123.8 87.5 123.7C87.6 123.5 87.7 123.4 87.8 123.2C88.3 122.3 88.3 121.4 88.1 120.8C88.1 120.6 88 120.5 88 120.3V120.2C88 120.1 87.9 120 87.8 119.9L87.7 119.7L87.6 119.5L87.3999 119.2C87.0999 118.9 86.8 118.6 86.5 118.3L86.3 118.1L70.8 107C67.5 104.4 65.2 100.6 64.5 96.5002C64.4 95.7002 64.3999 94.8002 64.3999 94.0002C64.3999 90.7002 65.1 87.7002 66.8 85.0002L67.3999 84.1002L73.5 75.9001L75.8 72.5002ZM89.7 19.9001L91.6 21.4001C90.5 22.9001 90.1 24.8002 90.5 26.6002C90.8 28.2002 91.6999 29.6002 92.8999 30.6002L93.3999 31.0002L117.5 48.6002C122.7 52.3002 125.7 57.6002 126.8 63.6002C127.8 69.2002 126.6 75.1001 123.4 79.9001L122.7 80.8002L106.7 102.9L104.5 101.3C104.5 101.3 105.6 99.8001 106.2 97.7001L106.4 97.1002L106.6 96.3002C106.8 95.3002 106.8 94.3002 106.8 93.3002L106.7 92.6002V92.4001C106.6 91.6001 106.4 90.9002 106.1 90.1002C106.1 90.0002 106.1 90.0001 106 89.9001C105.3 88.1001 104 86.4002 102.5 85.1002L101.8 84.6002L81.8 70.0002C76.6 66.3002 73.6 61.0002 72.5 55.0002C72.1 53.9002 72.1 52.4002 72.1 51.3002C72.1 46.8002 73.3 42.7001 75.8 38.9001L76.5 37.9001L89.7 19.9001Z" fill="black"/>
<rect x="4" y="4" width="382" height="211" rx="12" stroke="black" stroke-width="8"/>
<path d="M187 218.5V0" stroke="black" stroke-width="8" stroke-linejoin="bevel"/>
</svg>
