<svg width="109" height="109" viewBox="0 0 109 109" fill="none" xmlns="http://www.w3.org/2000/svg">
<path d="M106.541 40.1453C101.121 19.9053 84.9213 5.47526 65.7713 1.26526C66.1513 3.35526 65.7513 4.92526 64.2913 6.31526C63.4813 7.11526 62.8413 5.63526 61.7613 5.61526C59.9613 5.58526 57.8413 6.42526 58.5713 6.18526C52.5213 8.19526 45.2913 12.8053 40.3813 17.8853C37.6613 20.6453 37.2713 22.1553 37.0913 23.6453C36.9213 25.0753 37.3813 26.4553 38.2513 27.3953C38.5513 27.7253 39.5313 27.3053 42.5613 27.0753C43.9913 26.9653 46.5713 26.4353 48.1813 26.1753C56.6913 24.7853 59.5213 26.0153 61.5613 27.9853C63.1613 29.5853 63.8113 31.5453 64.6913 34.8853C66.5113 35.3653 68.1213 36.0953 69.2513 37.2253C70.2713 38.2553 70.8213 39.7953 71.1213 40.9953C70.2313 40.3553 69.4913 39.4353 68.6413 38.8553C67.3413 37.9853 66.0213 37.4253 65.0413 37.3953C65.1113 39.5953 64.6813 42.3153 64.0813 44.3153C63.8213 45.0953 63.5213 45.8653 63.2013 46.6253C63.7313 46.7053 64.2313 46.7853 64.6913 46.8553C65.5213 46.9853 66.3113 46.9453 67.0813 46.7353C67.7913 46.5453 68.2413 46.3253 68.4413 46.0653C68.6413 45.8053 68.8513 45.2453 69.0813 44.3653L70.2313 44.0553L74.1813 58.7853L73.2013 59.0453C72.3513 57.1853 71.2813 55.4453 70.0013 53.8353C68.7213 52.2353 67.2613 50.9053 65.6413 49.8553C64.6413 49.2153 63.5613 48.7153 62.4213 48.3353C59.6913 53.9053 55.2413 59.1453 48.8013 64.2253C47.6013 65.1753 46.4013 66.0653 45.2113 66.9053C45.2613 66.9553 45.3113 67.0153 45.3613 67.0653C46.4013 68.0953 47.5913 68.8853 48.9413 69.4253C50.2913 69.9653 51.7313 70.3353 53.2813 70.5253C54.8313 70.7253 56.3713 70.8453 57.9113 70.8953L68.6713 71.3253C69.8013 71.3753 71.2313 71.4553 72.9613 71.5753C74.6913 71.6953 76.4513 72.0953 78.2513 72.7753C80.0513 73.4553 81.7213 74.5553 83.2613 76.0553C84.8113 77.5553 85.9513 79.6953 86.6913 82.4653C87.3713 85.0153 87.5413 87.5753 87.2113 90.1353C86.8713 92.6953 86.0313 95.1053 84.7013 97.3553C84.0713 98.4153 83.3213 99.4053 82.4813 100.345C102.441 88.1553 112.901 63.8953 106.541 40.1453ZM53.3513 47.0153C54.4813 46.7153 55.5113 46.4953 56.4513 46.3653C58.4313 43.3853 59.7813 40.3553 60.7013 36.9153C58.3113 37.0753 56.9613 37.2453 54.9913 37.7753C46.3513 40.0953 32.0213 49.6253 25.9213 57.1453C22.7013 61.0953 21.3013 64.1753 21.8113 66.4553C22.2113 68.2753 24.2913 68.8753 27.5613 68.0053C31.0713 67.0653 35.2513 65.0453 39.3813 62.4053C39.4013 62.1953 39.4213 61.9853 39.4513 61.7753C39.7713 59.4553 40.5113 57.3153 41.6913 55.3753C42.8713 53.4353 44.4513 51.7253 46.4313 50.2653C48.4213 48.7953 50.7213 47.7153 53.3513 47.0153ZM50.2713 53.7053C52.3313 51.6553 54.0413 49.7053 55.4713 47.7553C54.8813 47.8553 54.2713 47.9853 53.6613 48.1453C52.3513 48.4953 50.9413 49.0653 49.4513 49.8353C47.9613 50.6153 46.6413 51.6153 45.5113 52.8553C44.3713 54.0853 43.5513 55.5353 43.0213 57.1853C42.7313 58.0953 42.6213 59.0853 42.6613 60.1553C45.3913 58.1953 48.0113 55.9953 50.2713 53.7053ZM57.0113 0.0752635C51.4813 -0.214736 45.8113 0.325264 40.1713 1.83526C11.2713 9.57526 -5.8887 39.2853 1.8613 68.1953C7.8613 90.5953 27.0713 105.875 48.8613 108.045L45.1413 94.1453L46.0413 93.9053C47.4313 96.6753 48.8713 98.9353 50.3613 100.685C51.8513 102.435 53.3513 103.815 54.8513 104.805C56.3513 105.795 57.8213 106.485 59.2713 106.845C60.7213 107.215 62.1313 107.385 63.5013 107.375C63.8313 107.375 64.1513 107.335 64.4713 107.315C65.7213 107.075 66.9713 106.845 68.2313 106.505C71.3113 105.675 74.2213 104.555 77.0213 103.265C77.1713 103.155 77.3413 103.045 77.4913 102.925C79.1213 101.565 80.3013 100.065 81.0413 98.4453C81.7813 96.8253 82.1613 95.1753 82.1813 93.5153C82.2013 91.8553 82.0413 90.3653 81.6913 89.0653C81.1813 87.1653 80.3913 85.6353 79.3113 84.4653C78.2313 83.3053 77.0213 82.3853 75.6813 81.7353C74.3313 81.0753 72.9313 80.6253 71.4913 80.3753C70.0413 80.1253 68.7013 79.9853 67.4713 79.9653L57.2713 79.6453C52.4813 79.4753 48.6413 78.5853 45.7813 76.9653C43.2213 75.5153 41.4013 73.2253 40.3313 70.0753C36.6713 72.2153 33.1613 73.7453 29.9513 74.6053C26.3313 75.5753 21.9213 73.8553 19.6513 69.2553C18.8813 67.6953 17.8513 65.4153 18.0013 63.0053C18.1713 60.3153 18.5213 59.0153 19.1313 57.6553C19.7713 56.2353 20.7313 54.5553 21.9913 53.1253C29.2413 44.9053 42.9413 38.1153 53.6113 35.2553C56.6213 34.4453 58.3913 34.2653 61.0613 34.4153C61.0513 33.7453 61.0313 33.3553 60.9513 32.9953C60.6513 31.6253 59.4313 30.2753 58.3113 29.7453C54.9413 28.1653 48.5913 29.6953 48.6713 29.7253L41.5313 31.7553C39.5413 32.3053 37.0613 32.7353 35.3813 32.0653C34.4013 31.6753 33.2413 30.6153 32.4713 28.9753C31.8513 27.6653 31.7213 26.0053 31.6913 24.7253C31.6213 21.4253 33.0313 18.1653 38.5013 12.8453C43.6113 7.97526 51.0513 2.90526 57.0113 0.0752635Z" fill="white"/>
</svg>
